# Blender 3.6.1
# www.blender.org
mtllib large_rod.mtl
o cube.017
v 0.187813 0.187813 1.250312
v 0.187813 0.187813 1.124688
v 0.187813 -0.187812 1.250312
v 0.187813 -0.187812 1.124688
v -0.187813 0.187813 1.124688
v -0.187813 0.187813 1.250312
v -0.187813 -0.187812 1.124688
v -0.187813 -0.187812 1.250312
v 0.010723 2.018140 1.248312
v 0.010723 2.018140 1.126437
v 0.185290 1.843573 1.248312
v 0.185290 1.843573 1.126437
v -0.075455 1.931962 1.126437
v -0.075455 1.931962 1.248312
v 0.099112 1.757395 1.126437
v 0.099112 1.757395 1.248312
v 0.187813 0.187812 -0.124687
v 0.187813 0.187812 -0.250313
v 0.187813 -0.187813 -0.124687
v 0.187813 -0.187813 -0.250312
v -0.187813 0.187812 -0.250313
v -0.187813 0.187812 -0.124687
v -0.187813 -0.187813 -0.250312
v -0.187813 -0.187813 -0.124687
v 0.187813 2.312812 -0.124688
v 0.187813 2.312812 -0.250313
v 0.187813 1.937188 -0.124688
v 0.187813 1.937188 -0.250313
v -0.187813 2.312812 -0.250313
v -0.187813 2.312812 -0.124688
v -0.187813 1.937188 -0.250313
v -0.187813 1.937188 -0.124688
v -0.062500 1.843750 -0.125000
v -0.062500 1.843750 -0.250000
v -0.062500 0.281250 -0.125000
v -0.062500 0.281250 -0.250000
v -0.187500 1.843750 -0.250000
v -0.187500 1.843750 -0.125000
v -0.187500 0.281250 -0.250000
v -0.187500 0.281250 -0.125000
v 0.187500 1.843750 -0.125000
v 0.187500 1.843750 -0.250000
v 0.187500 0.281250 -0.125000
v 0.187500 0.281250 -0.250000
v 0.062500 1.843750 -0.250000
v 0.062500 1.843750 -0.125000
v 0.062500 0.281250 -0.250000
v 0.062500 0.281250 -0.125000
v 0.099112 0.367252 -0.126687
v 0.099112 0.367252 -0.248562
v 0.185290 0.281073 -0.126687
v 0.185290 0.281073 -0.248562
v -0.075455 0.192685 -0.248562
v -0.075455 0.192685 -0.126687
v 0.010723 0.106506 -0.248562
v 0.010723 0.106506 -0.126687
v 0.077577 0.192862 -0.125062
v 0.077577 0.192862 -0.248500
v -0.009707 0.105578 -0.125062
v -0.009707 0.105578 -0.248500
v -0.098095 0.368533 -0.248500
v -0.098095 0.368533 -0.125062
v -0.185379 0.281250 -0.248500
v -0.185379 0.281250 -0.125062
v 0.062500 1.875000 -0.187500
v 0.062500 1.875000 -0.187500
v 0.062500 0.250000 -0.187500
v 0.062500 0.250000 -0.187500
v -0.062500 1.875000 -0.187500
v -0.062500 1.875000 -0.187500
v -0.062500 0.250000 -0.187500
v -0.062500 0.250000 -0.187500
v 0.077577 1.932138 -0.125063
v 0.077577 1.932138 -0.248500
v -0.098095 1.756467 -0.125063
v -0.098095 1.756467 -0.248500
v -0.009707 2.019422 -0.248500
v -0.009707 2.019422 -0.125063
v -0.185379 1.843750 -0.248500
v -0.185379 1.843750 -0.125063
v 0.010723 2.018140 -0.126688
v 0.010723 2.018140 -0.248563
v 0.185290 1.843573 -0.126688
v 0.185290 1.843573 -0.248563
v -0.075455 1.931962 -0.248563
v -0.075455 1.931962 -0.126688
v 0.099112 1.757395 -0.248563
v 0.099112 1.757395 -0.126688
v 0.077577 1.932138 1.249937
v 0.077577 1.932138 1.126500
v -0.098095 1.756467 1.249937
v -0.098095 1.756467 1.126500
v -0.009707 2.019422 1.126500
v -0.009707 2.019422 1.249937
v -0.185379 1.843750 1.126500
v -0.185379 1.843750 1.249937
v 0.062500 1.875000 1.187500
v 0.062500 1.875000 1.187500
v 0.062500 0.250000 1.187500
v 0.062500 0.250000 1.187500
v -0.062500 1.875000 1.187500
v -0.062500 1.875000 1.187500
v -0.062500 0.250000 1.187500
v -0.062500 0.250000 1.187500
v 0.077577 0.192862 1.249938
v 0.077577 0.192862 1.126500
v -0.009707 0.105578 1.249938
v -0.009707 0.105578 1.126500
v -0.098095 0.368534 1.126500
v -0.098095 0.368534 1.249938
v -0.185379 0.281250 1.126500
v -0.185379 0.281250 1.249938
v 0.099112 0.367252 1.248312
v 0.099112 0.367252 1.126438
v 0.185290 0.281073 1.248312
v 0.185290 0.281073 1.126438
v -0.075455 0.192685 1.126438
v -0.075455 0.192685 1.248312
v 0.010723 0.106506 1.126438
v 0.010723 0.106506 1.248312
v 0.187500 1.843750 1.250000
v 0.187500 1.843750 1.125000
v 0.187500 0.281250 1.250000
v 0.187500 0.281250 1.125000
v 0.062500 1.843750 1.125000
v 0.062500 1.843750 1.250000
v 0.062500 0.281250 1.125000
v 0.062500 0.281250 1.250000
v -0.062500 1.843750 1.250000
v -0.062500 1.843750 1.125000
v -0.062500 0.281250 1.250000
v -0.062500 0.281250 1.125000
v -0.187500 1.843750 1.125000
v -0.187500 1.843750 1.250000
v -0.187500 0.281250 1.125000
v -0.187500 0.281250 1.250000
v 0.187813 2.312813 1.250312
v 0.187813 2.312813 1.124687
v 0.187813 1.937188 1.250312
v 0.187813 1.937188 1.124687
v -0.187813 2.312813 1.124687
v -0.187813 2.312813 1.250312
v -0.187813 1.937188 1.124687
v -0.187813 1.937188 1.250312
vn -0.0000 -0.0000 -1.0000
vn 1.0000 -0.0000 -0.0000
vn -0.0000 -0.0000 1.0000
vn -1.0000 -0.0000 -0.0000
vn -0.0000 1.0000 -0.0000
vn -0.0000 -1.0000 -0.0000
vn 0.7071 0.7071 -0.0000
vn -0.7071 -0.7071 -0.0000
vn -0.7071 0.7071 -0.0000
vn 0.7071 -0.7071 -0.0000
vt 0.729167 0.718750
vt 0.604167 0.718750
vt 0.604167 0.531250
vt 0.729167 0.531250
vt 0.645833 0.718750
vt 0.645833 0.531250
vt 0.729167 0.656250
vt 0.604167 0.656250
vt 0.854167 0.187500
vt 0.854167 0.125000
vt 0.770833 0.125000
vt 0.770833 0.187500
vt 0.875083 0.124875
vt 0.875083 0.187500
vt 0.770833 0.124875
vt 0.000000 0.937500
vt 0.041667 0.937500
vt 0.041667 1.000000
vt 0.000000 1.000000
vt 1.000000 0.187500
vt 1.000000 0.125000
vt 0.479167 0.125000
vt 0.479167 0.187500
vt 0.958333 0.843750
vt 1.000000 0.843750
vt 1.000000 0.906250
vt 0.958333 0.906250
vt 0.979166 0.187500
vt 0.895833 0.187500
vt 0.895833 0.125000
vt 0.979166 0.125000
vt 0.895833 0.124875
vt 0.979250 0.124875
vt 0.979250 0.187500
vt 0.875000 0.125000
vt 0.979167 0.125000
vt 0.979167 0.187500
vt 0.875000 0.187500
vt 0.979208 0.187500
vt 0.875000 0.124937
vt 0.979208 0.124937
vt 0.958333 0.125000
vt 0.958333 0.187500
vt 0.916667 0.125000
vt 0.916667 0.062500
vt 0.375000 0.062500
vt 0.375000 0.125000
vt 0.083333 1.000000
vt 0.854208 0.124937
vt 0.854208 0.187500
vt 0.770833 0.124937
vt 0.895750 0.125000
vt 0.999917 0.125000
vt 0.999917 0.187500
vt 0.895750 0.187500
vt 0.999958 0.187500
vt 0.895750 0.124937
vt 0.999958 0.124937
vt 0.979083 0.125000
vt 0.979083 0.187500
vt 0.999916 0.187500
vt 0.916583 0.187500
vt 0.916583 0.125000
vt 0.999916 0.125000
vt 0.916583 0.124875
vt 1.000000 0.124875
s 0
usemtl crank
f 4/1/1 7/2/1 5/3/1 2/4/1
f 3/5/2 4/2/2 2/3/2 1/6/2
f 8/1/3 3/2/3 1/3/3 6/4/3
f 7/2/4 8/5/4 6/6/4 5/3/4
f 6/7/5 1/8/5 2/2/5 5/1/5
f 7/1/6 4/2/6 3/8/6 8/7/6
f 12/9/1 15/10/1 13/11/1 10/12/1
f 11/13/7 12/14/7 10/12/7 9/15/7
f 16/14/3 11/13/3 9/15/3 14/12/3
f 15/13/8 16/14/8 14/12/8 13/15/8
f 14/16/9 9/17/9 10/18/9 13/19/9
f 15/16/10 12/17/10 11/18/10 16/19/10
f 20/1/1 23/2/1 21/3/1 18/4/1
f 19/5/2 20/2/2 18/3/2 17/6/2
f 24/1/3 19/2/3 17/3/3 22/4/3
f 23/2/4 24/5/4 22/6/4 21/3/4
f 22/7/5 17/8/5 18/2/5 21/1/5
f 23/1/6 20/2/6 19/8/6 24/7/6
f 28/1/1 31/2/1 29/3/1 26/4/1
f 27/5/2 28/2/2 26/3/2 25/6/2
f 32/1/3 27/2/3 25/3/3 30/4/3
f 31/2/4 32/5/4 30/6/4 29/3/4
f 30/7/5 25/8/5 26/2/5 29/1/5
f 31/1/6 28/2/6 27/8/6 32/7/6
f 36/20/1 39/21/1 37/22/1 34/23/1
f 35/21/2 36/20/2 34/23/2 33/22/2
f 40/20/3 35/21/3 33/22/3 38/23/3
f 39/21/4 40/20/4 38/23/4 37/22/4
f 39/24/6 36/25/6 35/26/6 40/27/6
f 44/20/1 47/21/1 45/22/1 42/23/1
f 43/21/2 44/20/2 42/23/2 41/22/2
f 48/20/3 43/21/3 41/22/3 46/23/3
f 47/21/4 48/20/4 46/23/4 45/22/4
f 47/24/6 44/25/6 43/26/6 48/27/6
f 52/28/1 55/29/1 53/30/1 50/31/1
f 51/17/7 52/18/7 50/19/7 49/16/7
f 56/32/3 51/33/3 49/34/3 54/29/3
f 55/17/8 56/18/8 54/19/8 53/16/8
f 54/29/9 49/34/9 50/33/9 53/32/9
f 55/29/10 52/34/10 51/33/10 56/32/10
f 60/35/1 63/36/1 61/37/1 58/38/1
f 59/19/10 60/16/10 58/17/10 57/18/10
f 64/39/3 59/38/3 57/40/3 62/41/3
f 63/19/9 64/16/9 62/17/9 61/18/9
f 62/41/7 57/40/7 58/38/7 61/39/7
f 63/42/8 60/35/8 59/38/8 64/43/8
f 68/44/1 71/45/1 69/46/1 66/47/1
f 72/45/3 67/44/3 65/47/3 70/46/3
f 70/19/5 65/48/1 66/48/5 69/19/1
f 71/19/6 68/48/1 67/48/6 72/19/1
f 76/9/1 79/10/1 77/11/1 74/12/1
f 75/49/10 76/50/10 74/12/10 73/51/10
f 80/50/3 75/49/3 73/51/3 78/12/3
f 79/49/9 80/50/9 78/12/9 77/51/9
f 78/16/7 73/17/7 74/18/7 77/19/7
f 79/16/8 76/17/8 75/18/8 80/19/8
f 84/9/1 87/10/1 85/11/1 82/12/1
f 83/13/7 84/14/7 82/12/7 81/15/7
f 88/14/3 83/13/3 81/15/3 86/12/3
f 87/13/8 88/14/8 86/12/8 85/15/8
f 86/16/9 81/17/9 82/18/9 85/19/9
f 87/16/10 84/17/10 83/18/10 88/19/10
f 92/9/1 95/10/1 93/11/1 90/12/1
f 91/49/10 92/50/10 90/12/10 89/51/10
f 96/50/3 91/49/3 89/51/3 94/12/3
f 95/49/9 96/50/9 94/12/9 93/51/9
f 94/16/7 89/17/7 90/18/7 93/19/7
f 95/16/8 92/17/8 91/18/8 96/19/8
f 100/44/1 103/45/1 101/46/1 98/47/1
f 104/45/3 99/44/3 97/47/3 102/46/3
f 102/19/5 97/48/1 98/48/5 101/19/1
f 103/19/6 100/48/1 99/48/6 104/19/1
f 108/52/1 111/53/1 109/54/1 106/55/1
f 107/19/10 108/16/10 106/17/10 105/18/10
f 112/56/3 107/55/3 105/57/3 110/58/3
f 111/19/9 112/16/9 110/17/9 109/18/9
f 110/58/7 105/57/7 106/55/7 109/56/7
f 111/59/8 108/52/8 107/55/8 112/60/8
f 116/61/1 119/62/1 117/63/1 114/64/1
f 115/17/7 116/18/7 114/19/7 113/16/7
f 120/65/3 115/66/3 113/20/3 118/62/3
f 119/17/8 120/18/8 118/19/8 117/16/8
f 118/62/9 113/20/9 114/66/9 117/65/9
f 119/62/10 116/20/10 115/66/10 120/65/10
f 124/20/1 127/21/1 125/22/1 122/23/1
f 123/21/2 124/20/2 122/23/2 121/22/2
f 128/20/3 123/21/3 121/22/3 126/23/3
f 127/21/4 128/20/4 126/23/4 125/22/4
f 127/24/6 124/25/6 123/26/6 128/27/6
f 132/20/1 135/21/1 133/22/1 130/23/1
f 131/21/2 132/20/2 130/23/2 129/22/2
f 136/20/3 131/21/3 129/22/3 134/23/3
f 135/21/4 136/20/4 134/23/4 133/22/4
f 135/24/6 132/25/6 131/26/6 136/27/6
f 140/1/1 143/2/1 141/3/1 138/4/1
f 139/5/2 140/2/2 138/3/2 137/6/2
f 144/1/3 139/2/3 137/3/3 142/4/3
f 143/2/4 144/5/4 142/6/4 141/3/4
f 142/7/5 137/8/5 138/2/5 141/1/5
f 143/1/6 140/2/6 139/8/6 144/7/6
